<svg width="106" height="145" viewBox="0 0 106 145" fill="none" xmlns="http://www.w3.org/2000/svg">
<circle cx="53" cy="82" r="53" fill="#60B3FF"/>
<path d="M17.24 58.92H26.456V65.544C28.632 62.856 31.096 60.84 33.848 59.496C36.6 58.152 39.448 57.48 42.392 57.48C46.104 57.48 49.048 58.12 51.224 59.4C53.4 60.616 55 62.504 56.024 65.064C58.072 62.568 60.568 60.68 63.512 59.4C66.52 58.12 69.528 57.48 72.536 57.48C78.168 57.48 82.232 58.92 84.728 61.8C87.224 64.616 88.472 68.808 88.472 74.376V105H79.064V75.624C79.064 71.848 78.36 69.192 76.952 67.656C75.544 66.056 73.144 65.256 69.752 65.256C64.888 65.256 60.92 67.368 57.848 71.592C57.976 72.552 58.04 74.12 58.04 76.296V105H48.632V75.624C48.632 71.848 47.992 69.192 46.712 67.656C45.432 66.056 43.128 65.256 39.8 65.256C34.936 65.256 30.584 68.008 26.744 73.512V105H17.24V58.92Z" fill="#2B1A6C"/>
<path d="M17.24 58.92V57.92H16.24V58.92H17.24ZM26.456 58.92H27.456V57.92H26.456V58.92ZM26.456 65.544H25.456V68.3686L27.2332 66.1732L26.456 65.544ZM33.848 59.496L33.4092 58.5974L33.848 59.496ZM51.224 59.4L50.717 60.2619L50.7265 60.2675L50.7362 60.2729L51.224 59.4ZM56.024 65.064L55.0955 65.4354L55.7239 67.0063L56.7971 65.6983L56.024 65.064ZM63.512 59.4L63.1204 58.4798L63.1133 58.4829L63.512 59.4ZM84.728 61.8L83.9723 62.455L83.9797 62.4633L84.728 61.8ZM88.472 105V106H89.472V105H88.472ZM79.064 105H78.064V106H79.064V105ZM76.952 67.656L76.2013 68.3166L76.208 68.3242L76.2149 68.3317L76.952 67.656ZM57.848 71.592L57.0393 71.0038L56.8039 71.3275L56.8568 71.7242L57.848 71.592ZM58.04 105V106H59.04V105H58.04ZM48.632 105H47.632V106H48.632V105ZM46.712 67.656L45.9311 68.2807L45.9374 68.2885L45.9438 68.2962L46.712 67.656ZM26.744 73.512L25.9239 72.9398L25.744 73.1976V73.512H26.744ZM26.744 105V106H27.744V105H26.744ZM17.24 105H16.24V106H17.24V105ZM17.24 59.92H26.456V57.92H17.24V59.92ZM25.456 58.92V65.544H27.456V58.92H25.456ZM27.2332 66.1732C29.3293 63.5839 31.6819 61.6667 34.2868 60.3946L33.4092 58.5974C30.5101 60.0133 27.9347 62.1281 25.6788 64.9148L27.2332 66.1732ZM34.2868 60.3946C36.9078 59.1145 39.6063 58.48 42.392 58.48V56.48C39.2897 56.48 36.2922 57.1895 33.4092 58.5974L34.2868 60.3946ZM42.392 58.48C46.0041 58.48 48.7505 59.1052 50.717 60.2619L51.731 58.5381C49.3455 57.1348 46.2039 56.48 42.392 56.48V58.48ZM50.7362 60.2729C52.6907 61.3652 54.147 63.0641 55.0955 65.4354L56.9525 64.6926C55.853 61.9439 54.1093 59.8668 51.7118 58.5271L50.7362 60.2729ZM56.7971 65.6983C58.7451 63.3242 61.113 61.5335 63.9107 60.3171L63.1133 58.4829C60.023 59.8265 57.3989 61.8118 55.2509 64.4297L56.7971 65.6983ZM63.9036 60.3202C66.7986 59.0882 69.6739 58.48 72.536 58.48V56.48C69.3821 56.48 66.2414 57.1518 63.1204 58.4798L63.9036 60.3202ZM72.536 58.48C78.0189 58.48 81.7424 59.8819 83.9723 62.4549L85.4837 61.1451C82.7216 57.9581 78.3171 56.48 72.536 56.48V58.48ZM83.9797 62.4633C86.251 65.0258 87.472 68.938 87.472 74.376H89.472C89.472 68.678 88.197 64.2062 85.4763 61.1367L83.9797 62.4633ZM87.472 74.376V105H89.472V74.376H87.472ZM88.472 104H79.064V106H88.472V104ZM80.064 105V75.624H78.064V105H80.064ZM80.064 75.624C80.064 71.7805 79.3586 68.8015 77.6892 66.9803L76.2149 68.3317C77.3614 69.5825 78.064 71.9155 78.064 75.624H80.064ZM77.7027 66.9954C76.0169 65.0797 73.2641 64.256 69.752 64.256V66.256C73.0239 66.256 75.0711 67.0323 76.2013 68.3166L77.7027 66.9954ZM69.752 64.256C64.5414 64.256 60.2832 66.5434 57.0393 71.0038L58.6567 72.1802C61.5568 68.1926 65.2346 66.256 69.752 66.256V64.256ZM56.8568 71.7242C56.9753 72.6131 57.04 74.1236 57.04 76.296H59.04C59.04 74.1164 58.9767 72.4909 58.8392 71.4598L56.8568 71.7242ZM57.04 76.296V105H59.04V76.296H57.04ZM58.04 104H48.632V106H58.04V104ZM49.632 105V75.624H47.632V105H49.632ZM49.632 75.624C49.632 71.7951 48.9951 68.8336 47.4802 67.0158L45.9438 68.2962C46.9889 69.5504 47.632 71.9009 47.632 75.624H49.632ZM47.4929 67.0313C45.9306 65.0784 43.2438 64.256 39.8 64.256V66.256C43.0122 66.256 44.9334 67.0336 45.9311 68.2807L47.4929 67.0313ZM39.8 64.256C34.4943 64.256 29.8738 67.2782 25.9239 72.9398L27.5641 74.0842C31.2942 68.7378 35.3777 66.256 39.8 66.256V64.256ZM25.744 73.512V105H27.744V73.512H25.744ZM26.744 104H17.24V106H26.744V104ZM18.24 105V58.92H16.24V105H18.24Z" fill="#7654FD"/>
</svg>
