<?xml version="1.0" encoding="UTF-8"?>
<svg width="45.538mm" height="45.519mm" version="1.1" viewBox="0 0 45.538 45.519" xmlns="http://www.w3.org/2000/svg"><path transform="translate(-99.476 -39.311)" d="m143.94 62.071c0 0.75671-0.0397 1.5161-0.11906 2.2675-0.0794 0.75142-0.19844 1.5055-0.35454 2.2437-0.15875 0.74083-0.35454 1.4764-0.59002 2.1934-0.23284 0.71967-0.50536 1.4314-0.81227 2.122a22.385 22.385 0 0 1-1.0319 2.0241 21.788 21.788 0 0 1-2.667 3.6698 21.898 21.898 0 0 1-1.606 1.606 21.788 21.788 0 0 1-3.6698 2.667 22.385 22.385 0 0 1-2.0241 1.0319c-0.69056 0.30692-1.4023 0.57944-2.122 0.81227-0.71702 0.23548-1.4526 0.43127-2.1934 0.59002-0.73818 0.1561-1.4922 0.27517-2.2437 0.35454a21.62 21.62 0 0 1-4.535 0c-0.75406-0.07937-1.5055-0.19844-2.2437-0.35454-0.74083-0.15875-1.4764-0.35454-2.196-0.59002-0.71702-0.23283-1.4288-0.50535-2.1193-0.81227a22.041 22.041 0 0 1-2.0241-1.0319 21.788 21.788 0 0 1-3.6698-2.667 21.389 21.389 0 0 1-1.606-1.606 21.267 21.267 0 0 1-1.4314-1.7648 21.899 21.899 0 0 1-2.2675-3.9291c-0.30692-0.69056-0.57944-1.4023-0.81492-2.122-0.23283-0.71702-0.42862-1.4526-0.58737-2.1934-0.15611-0.73819-0.27517-1.4922-0.35454-2.2437a21.62 21.62 0 0 1 0-4.535c0.0794-0.75406 0.19843-1.5055 0.35454-2.2437 0.15875-0.74083 0.35454-1.4764 0.58737-2.196 0.23548-0.71702 0.508-1.4288 0.81492-2.1193a21.397 21.397 0 0 1 1.0319-2.0241c0.37836-0.65617 0.79111-1.2938 1.2356-1.905a21.267 21.267 0 0 1 1.4314-1.7648c0.50536-0.56356 1.0425-1.1007 1.606-1.606a21.267 21.267 0 0 1 1.7648-1.4314c0.61118-0.4445 1.2488-0.85725 1.905-1.2356a21.397 21.397 0 0 1 2.0241-1.0319c0.69056-0.30692 1.4023-0.57944 2.1193-0.81492 0.71967-0.23283 1.4552-0.42862 2.196-0.58738a21.99 21.99 0 0 1 2.2437-0.35454 21.62 21.62 0 0 1 4.535 0c0.75141 0.07938 1.5055 0.19844 2.2437 0.35454 0.74084 0.15875 1.4764 0.35454 2.1934 0.58738 0.71967 0.23548 1.4314 0.508 2.122 0.81492a21.899 21.899 0 0 1 3.9291 2.2675 21.267 21.267 0 0 1 1.7648 1.4314c0.56092 0.50535 1.1007 1.0425 1.606 1.606a21.788 21.788 0 0 1 2.667 3.6698c0.37836 0.65352 0.72231 1.3335 1.0319 2.0241 0.30691 0.69056 0.57943 1.4023 0.81227 2.1193 0.23548 0.71967 0.43127 1.4552 0.59002 2.196a21.99 21.99 0 0 1 0.35454 2.2437c0.0794 0.75142 0.0979 1.8891 0.11906 2.2675 0.0185 0.37836 0.0185-0.37835 0 0" fill="#2a2020" stroke-width="0"/><path transform="translate(-99.476 -39.311)" d="m143.94 62.071c0 0.75671-0.0397 1.5161-0.11906 2.2675-0.0794 0.75142-0.19844 1.5055-0.35454 2.2437-0.15875 0.74083-0.35454 1.4764-0.59002 2.1934-0.23284 0.71967-0.50536 1.4314-0.81227 2.122a22.385 22.385 0 0 1-1.0319 2.0241 21.788 21.788 0 0 1-2.667 3.6698 21.898 21.898 0 0 1-1.606 1.606 21.788 21.788 0 0 1-3.6698 2.667 22.385 22.385 0 0 1-2.0241 1.0319c-0.69056 0.30692-1.4023 0.57944-2.122 0.81227-0.71702 0.23548-1.4526 0.43127-2.1934 0.59002-0.73818 0.1561-1.4922 0.27517-2.2437 0.35454a21.62 21.62 0 0 1-4.535 0c-0.75406-0.07937-1.5055-0.19844-2.2437-0.35454-0.74083-0.15875-1.4764-0.35454-2.196-0.59002-0.71702-0.23283-1.4288-0.50535-2.1193-0.81227a22.041 22.041 0 0 1-2.0241-1.0319 21.788 21.788 0 0 1-3.6698-2.667 21.389 21.389 0 0 1-1.606-1.606 21.267 21.267 0 0 1-1.4314-1.7648 21.899 21.899 0 0 1-2.2675-3.9291c-0.30692-0.69056-0.57944-1.4023-0.81492-2.122-0.23283-0.71702-0.42862-1.4526-0.58737-2.1934-0.15611-0.73819-0.27517-1.4922-0.35454-2.2437a21.62 21.62 0 0 1 0-4.535c0.0794-0.75406 0.19843-1.5055 0.35454-2.2437 0.15875-0.74083 0.35454-1.4764 0.58737-2.196 0.23548-0.71702 0.508-1.4288 0.81492-2.1193a21.397 21.397 0 0 1 1.0319-2.0241c0.37836-0.65617 0.79111-1.2938 1.2356-1.905a21.267 21.267 0 0 1 1.4314-1.7648c0.50536-0.56356 1.0425-1.1007 1.606-1.606a21.267 21.267 0 0 1 1.7648-1.4314c0.61118-0.4445 1.2488-0.85725 1.905-1.2356a21.397 21.397 0 0 1 2.0241-1.0319c0.69056-0.30692 1.4023-0.57944 2.1193-0.81492 0.71967-0.23283 1.4552-0.42862 2.196-0.58738a21.99 21.99 0 0 1 2.2437-0.35454 21.62 21.62 0 0 1 4.535 0c0.75141 0.07938 1.5055 0.19844 2.2437 0.35454 0.74084 0.15875 1.4764 0.35454 2.1934 0.58738 0.71967 0.23548 1.4314 0.508 2.122 0.81492a21.899 21.899 0 0 1 3.9291 2.2675 21.267 21.267 0 0 1 1.7648 1.4314c0.56092 0.50535 1.1007 1.0425 1.606 1.606a21.788 21.788 0 0 1 2.667 3.6698c0.37836 0.65352 0.72231 1.3335 1.0319 2.0241 0.30691 0.69056 0.57943 1.4023 0.81227 2.1193 0.23548 0.71967 0.43127 1.4552 0.59002 2.196a21.99 21.99 0 0 1 0.35454 2.2437c0.0794 0.75142 0.0979 1.8891 0.11906 2.2675 0.0185 0.37836 0.0185-0.37835 0 0" fill="none" stroke="#f0f0f0" stroke-width="2.1167"/><path transform="translate(-99.476 -39.311)" d="m111.57 55.312 0.33116 1.7662q-0.16558 0.71751 0.71752 3.4772 2.2077-2.3181 3.0908-4.1947 1.2142-1.3798 1.0487-2.8149 2.4285-1.3798 4.1947-1.0487 0.99348 0.27597 2.0974 2.4837v5.2434l0.38635 0.33116q1.0487-1.1039 2.7045-3.2564 1.711-2.1525 2.1525-2.7045 1.6558-2.2629 3.146-3.146 2.3181 0.27597 3.4772 1.7662 1.6006 2.7045 2.0974 7.6719-0.0552 0.99348 0.11039 2.0974 0.16558 1.1039 0.49674 2.4285 0.33116 1.3246 0.44155 2.0973 0.55193 1.5454 0.38635 2.8149-0.0552 0.71751-0.71751 0.93829-0.66232 0.22077-1.3798 0.05519-1.2143-0.27597-2.0974-2.0422-0.38635-0.8279-0.71751-1.6006-0.27597-0.8279-0.55194-1.987-0.22077-1.2143-0.33116-1.6006-0.0552-0.38635-0.27597-2.0422-0.22077-1.711-0.22077-1.8214-0.38635-1.1039-0.88309-1.1039-0.22078 0.11039-0.8279 0.66232-0.60713 0.55193-1.2143 1.1591-0.55193 0.55193-1.2142 1.2694-0.66232 0.66232-0.77271 0.77271l-0.55194 0.77271-2.0422 2.6493-0.55194 0.77271q-0.22077 0.22077-0.8279 1.0487-0.55193 0.77271-0.99348 1.1591-0.38635 0.38636-0.93829 0.60713-0.93828 0.16558-1.7662-0.16558-0.8279-0.38635-1.0487-1.2694-0.33116-0.44155-0.33116-1.0487v-5.8505h-0.11039q-0.22077-0.11039-0.27596-0.05519-3.8084 5.3538-5.9057 9.0517-0.49674 0.66232-0.71751 0.66232-2.3733 0.27597-2.7597-0.66232-0.16558-0.27597-0.44155-1.1039-0.27597-0.88309-0.27597-0.99348v-13.412q0.22078-1.4902 1.435-1.4902 0.66232 0 1.3798 0.49674 0.71751 0.49674 1.0487 1.1591z" fill="#f0f0f0" stroke-width=".34277" style="white-space:pre"/></svg>
