<svg xmlns="http://www.w3.org/2000/svg" height="118.35" width="439.274"><path d="M59.764 38.552h319.75m-319.75 0h319.75M59.764 75.747h319.59m-319.59 0h319.59" fill="none" stroke="#0af" stroke-width="4" stroke-linecap="round"/><path d="M143.24 21.905c-.003 14.91.003 29.83 0 53.11m53.728-35.141.005 55.09m111.371-52.49c-.002 11.33-.004 22.67-.004 31.1m-57.898 3.678c0 12.03-.001 24.06-.004 31.1M250.442 10c0 12.08-.001 24.16-.004 31.1" fill="none" stroke="#0af" stroke-dasharray="8 12" stroke-width="4.5" stroke-linecap="round"/><path d="M422.034 54.102h7.24m0 0v7.24m0 0h-7.24m0 0v-7.24M10 53.248h7.24m0 0v7.24m0 0H10m0 0v-7.24" fill="none" stroke="transparent" stroke-dasharray="8 8.5" stroke-linecap="round"/></svg>
